<svg xmlns="http://www.w3.org/2000/svg" viewBox="0 0 512 512">
  <rect width="512" height="512" rx="120" fill="#1e1e2e"/>
  <circle cx="256" cy="256" r="168" fill="#ea76cb" opacity="0.18"/>
  <path fill="#f5c2e7" d="M165 132h140c24 0 43 19 43 43v196c0 5-4 9-9 9s-9-4-9-9V175c0-14-11-25-25-25H181v184c0 15 12 27 27 27h108c5 0 9 4 9 9s-4 9-9 9H208c-25 0-45-20-45-45V141c0-5 4-9 9-9h-7z"/>
  <path fill="#cba6f7" d="M210 182h106c5 0 9 4 9 9s-4 9-9 9H210c-5 0-9-4-9-9s4-9 9-9zm0 52h106c5 0 9 4 9 9s-4 9-9 9H210c-5 0-9-4-9-9s4-9 9-9zm0 52h73c5 0 9 4 9 9s-4 9-9 9h-73c-5 0-9-4-9-9s4-9 9-9z"/>
  <path fill="#f5e0dc" d="M339 168h12c19 0 34 15 34 34v143c0 19-15 34-34 34h-13c-5 0-9-4-9-9s4-9 9-9h13c9 0 16-7 16-16V202c0-9-7-16-16-16h-12c-5 0-9-4-9-9s4-9 9-9z"/>
</svg>
